<?xml version="1.0" encoding="UTF-8"?>
<svg xmlns="http://www.w3.org/2000/svg" xmlns:xlink="http://www.w3.org/1999/xlink" width="599pt" height="450pt" viewBox="0 0 599 450" version="1.1">
<defs>
<clipPath id="clip1">
  <path d="M 69.085938 14.398438 L 585 14.398438 L 585 406 L 69.085938 406 Z "/>
</clipPath>
</defs>
<g id="surface1">
<rect x="0" y="0" width="599" height="450" style="fill:rgb(100%,100%,100%);fill-opacity:1;stroke:none;"/>
<rect x="0" y="0" width="599" height="450" style="fill:rgb(89.019608%,80.392157%,64.313725%);fill-opacity:1;stroke:none;"/>
<path style="fill:none;stroke-width:1.062992;stroke-linecap:round;stroke-linejoin:round;stroke:rgb(100%,100%,100%);stroke-opacity:1;stroke-miterlimit:10;" d="M 0 450 L 599 450 L 599 0 L 0 0 Z "/>
<g clip-path="url(#clip1)" clip-rule="nonzero">
<path style=" stroke:none;fill-rule:nonzero;fill:rgb(89.019608%,80.392157%,64.313725%);fill-opacity:1;" d="M 69.085938 405.179688 L 584.597656 405.179688 L 584.597656 14.398438 L 69.085938 14.398438 Z "/>
</g>
<path style="fill:none;stroke-width:1.062992;stroke-linecap:butt;stroke-linejoin:round;stroke:rgb(97.254902%,46.27451%,42.745098%);stroke-opacity:1;stroke-miterlimit:1;" d="M 92.519531 357.199219 L 123.761719 375.925781 L 155.003906 370.191406 L 186.25 344.835938 L 217.492188 369.269531 L 248.734375 383.617188 L 279.976562 358.769531 L 311.222656 387.417969 L 342.464844 362.957031 L 373.707031 350.035156 L 404.953125 333.21875 L 436.195312 316.113281 L 467.4375 298.816406 L 498.679688 294.410156 L 529.925781 247.933594 L 561.167969 240.652344 "/>
<path style="fill:none;stroke-width:1.062992;stroke-linecap:butt;stroke-linejoin:round;stroke:rgb(97.254902%,46.27451%,42.745098%);stroke-opacity:1;stroke-miterlimit:1;" d="M 92.519531 52.4375 L 123.761719 32.164062 L 155.003906 34.121094 L 186.25 67.195312 L 217.492188 81.882812 L 248.734375 62.890625 L 279.976562 51.640625 L 311.222656 64.488281 L 342.464844 38.308594 L 373.707031 40.632812 L 404.953125 64.945312 L 436.195312 75.785156 L 467.4375 99.253906 L 498.679688 106.199219 L 529.925781 111.644531 L 561.167969 110.433594 "/>
</g>
</svg>
